<?xml version="1.0" standalone="no"?>
<!DOCTYPE svg PUBLIC "-//W3C//DTD SVG 20010904//EN"
 "http://www.w3.org/TR/2001/REC-SVG-20010904/DTD/svg10.dtd">
<svg version="1.0" xmlns="http://www.w3.org/2000/svg"
 width="1338.000000pt" height="1386.000000pt" viewBox="0 0 1338.000000 1386.000000"
 preserveAspectRatio="xMidYMid meet">

<g transform="translate(0.000000,1386.000000) scale(0.100000,-0.100000)"
fill="#000000" stroke="none">
<path d="M3920 13609 c-393 -4 -637 -10 -677 -17 -58 -11 -144 -29 -398 -82
-121 -26 -374 -93 -470 -125 -38 -13 -83 -26 -100 -30 -45 -9 -209 -76 -213
-86 -2 -5 -10 -9 -17 -9 -25 0 -239 -107 -259 -129 -11 -11 -23 -21 -28 -21
-5 0 -33 -15 -61 -33 -29 -19 -77 -49 -107 -68 -51 -32 -85 -57 -116 -86 -7
-7 -16 -13 -21 -13 -5 0 -29 -19 -55 -42 -26 -24 -72 -65 -103 -93 -94 -83
-259 -255 -326 -340 -34 -44 -79 -98 -99 -120 -24 -26 -56 -84 -90 -165 -29
-69 -57 -126 -62 -128 -4 -2 -8 -10 -8 -17 0 -7 -12 -37 -26 -67 -15 -29 -31
-64 -36 -78 -6 -14 -16 -38 -23 -55 -7 -16 -20 -57 -30 -90 -9 -33 -20 -69
-25 -80 -5 -11 -11 -38 -14 -60 -8 -71 -36 -247 -40 -254 -3 -4 -5 -1240 -6
-2746 l-2 -2740 26 -90 c72 -249 80 -266 182 -412 23 -32 66 -99 95 -148 110
-188 163 -258 260 -342 52 -45 121 -105 154 -133 33 -29 103 -81 155 -116 52
-36 115 -81 140 -100 25 -19 158 -90 295 -158 245 -121 382 -174 735 -284 84
-27 271 -92 680 -239 277 -99 571 -200 1599 -544 747 -250 1087 -359 1117
-359 24 0 46 -4 49 -10 3 -5 14 -10 23 -10 9 0 43 -24 75 -53 l57 -53 0 -1207
0 -1207 534 0 535 0 3 223 c2 122 4 656 6 1186 4 951 4 965 24 1009 13 27 36
53 59 67 39 26 147 65 175 65 24 0 208 57 277 86 32 14 82 29 110 34 49 9 270
64 382 95 28 7 75 20 105 28 132 35 222 66 262 89 72 43 207 95 338 133 213
62 250 74 405 140 83 35 177 71 210 81 136 39 297 95 415 144 69 29 184 67
255 85 170 43 434 130 487 160 24 14 48 25 55 25 6 0 45 16 86 35 41 19 80 35
86 35 6 0 88 30 183 66 95 37 202 77 237 91 88 33 125 51 263 132 135 79 336
211 404 266 33 26 93 80 134 120 41 40 110 105 152 145 42 40 96 99 120 133
24 33 64 88 89 121 113 150 247 469 297 706 14 67 17 352 21 2705 5 3112 6
2835 -9 2926 -15 97 -55 235 -90 312 -15 34 -35 91 -44 126 -24 94 -112 311
-150 367 -98 147 -128 186 -200 254 -43 41 -171 165 -285 276 -221 215 -266
250 -424 324 -56 27 -120 60 -141 75 -158 108 -453 215 -741 271 -264 51 -340
63 -495 78 -85 9 -182 19 -215 23 -70 9 -5246 11 -6145 2z m437 -2173 c97 -81
220 -149 361 -201 37 -13 105 -38 152 -55 47 -17 138 -45 203 -61 65 -16 166
-45 224 -64 58 -19 173 -51 257 -70 83 -20 208 -52 279 -71 92 -25 163 -38
255 -45 70 -5 215 -16 322 -25 309 -24 632 -23 820 4 85 12 198 27 250 33 157
19 418 75 530 114 58 20 148 49 200 66 52 16 133 41 180 55 47 15 114 40 150
56 67 30 133 57 255 102 39 14 120 55 180 91 l110 66 227 -230 c125 -127 258
-268 295 -313 81 -97 183 -238 208 -288 43 -84 133 -211 198 -279 56 -60 80
-96 122 -185 64 -135 187 -461 214 -571 11 -44 33 -105 50 -135 81 -153 119
-523 140 -1372 13 -516 6 -585 -89 -943 -36 -134 -101 -327 -132 -389 -17 -33
-56 -119 -88 -191 -41 -94 -81 -165 -139 -246 -44 -63 -97 -144 -116 -182 -94
-179 -140 -240 -425 -557 -14 -15 -68 -63 -120 -105 -87 -72 -147 -125 -256
-226 -23 -21 -72 -59 -110 -85 -38 -25 -91 -63 -119 -84 -27 -20 -90 -59 -140
-85 -49 -27 -124 -70 -166 -96 -84 -52 -363 -191 -419 -207 -19 -6 -96 -29
-170 -51 -74 -22 -200 -60 -280 -85 -80 -24 -156 -46 -170 -49 -14 -2 -93 -19
-176 -36 -83 -17 -213 -37 -289 -46 -156 -17 -553 -20 -685 -5 -47 5 -173 19
-280 30 -107 11 -225 25 -262 30 -96 14 -307 82 -434 138 -60 27 -170 69 -244
92 -74 24 -175 61 -225 83 -49 21 -121 50 -159 64 -86 30 -226 100 -226 113 0
17 -103 86 -163 110 -33 13 -100 56 -155 99 -53 43 -131 100 -173 128 -71 48
-285 257 -395 385 -80 94 -376 494 -424 573 -13 22 -52 83 -86 135 -77 118
-154 279 -187 390 -14 47 -47 144 -74 215 -27 72 -62 175 -77 230 -14 55 -35
129 -46 165 -46 152 -56 321 -55 910 2 421 3 449 23 523 12 46 24 126 28 195
7 125 8 135 47 282 14 52 30 127 36 166 17 112 48 198 97 270 25 36 62 102 83
147 21 45 82 163 136 262 54 99 131 241 171 316 79 149 258 412 296 435 8 5
45 47 84 94 134 164 275 307 340 343 9 5 24 15 33 23 9 7 43 34 76 61 33 26
62 51 63 55 6 15 30 8 59 -16z"/>
<path d="M4465 8949 c-318 -29 -592 -243 -703 -549 -62 -168 -62 -381 -1 -548
98 -269 310 -464 578 -531 116 -29 295 -29 407 -1 174 45 350 161 452 296 63
84 123 205 148 299 27 99 27 322 0 420 -109 397 -475 652 -881 614z"/>
<path d="M8767 8929 c-92 -12 -206 -51 -297 -102 -100 -56 -242 -196 -301
-297 -146 -253 -151 -566 -12 -820 154 -283 446 -444 772 -427 127 7 199 24
308 77 105 50 172 99 258 192 82 88 135 179 177 303 26 77 32 109 35 220 4
109 2 144 -16 220 -38 160 -130 318 -244 421 -133 120 -281 189 -460 213 -88
12 -123 12 -220 0z"/>
<path d="M7428 6696 c-49 -18 -68 -30 -163 -113 -103 -89 -125 -101 -275 -159
l-125 -49 -190 1 c-186 0 -192 1 -283 31 -51 17 -108 42 -126 56 -18 14 -55
38 -82 53 -27 15 -85 54 -129 87 -108 81 -134 91 -221 84 -123 -9 -183 -47
-231 -147 -24 -48 -27 -68 -27 -150 -1 -94 0 -96 41 -165 41 -69 135 -163 262
-263 100 -78 214 -126 411 -173 115 -27 144 -30 375 -36 233 -5 257 -4 354 17
178 37 345 105 497 201 76 48 182 162 226 243 31 58 33 66 33 166 0 91 -4 111
-24 150 -78 149 -198 211 -323 166z"/>
<path d="M12832 4753 c-11 -21 -23 -53 -27 -70 -3 -18 -11 -35 -16 -38 -5 -4
-9 -15 -9 -26 0 -24 -97 -216 -143 -281 -109 -158 -150 -207 -274 -333 -161
-164 -229 -222 -338 -295 -44 -29 -87 -61 -96 -72 -29 -37 -290 -181 -374
-208 -22 -7 -99 -43 -172 -81 -72 -38 -156 -78 -186 -88 -30 -10 -75 -30 -101
-44 -26 -14 -161 -62 -299 -107 -139 -45 -297 -97 -352 -117 -55 -19 -154 -52
-220 -73 -66 -21 -185 -62 -265 -90 -207 -74 -189 -69 -635 -201 -55 -16 -143
-46 -195 -65 -93 -36 -167 -60 -385 -130 -60 -20 -148 -51 -195 -69 -47 -18
-107 -40 -135 -48 -27 -9 -135 -42 -240 -75 -104 -33 -217 -66 -250 -72 -46
-10 -68 -21 -92 -47 l-33 -34 0 -860 0 -859 1080 0 1080 0 123 31 c67 17 176
41 242 53 249 48 583 144 770 221 112 46 506 239 560 274 22 15 58 36 79 46
22 11 64 43 95 71 31 28 61 53 68 55 20 6 240 205 341 307 133 135 216 257
268 397 10 28 41 91 69 140 122 214 232 510 266 715 9 55 13 318 15 990 1 503
5 959 8 1012 7 108 -3 129 -32 71z"/>
<path d="M517 4714 c-4 -4 -7 -476 -7 -1049 0 -1095 -1 -1064 44 -1256 37
-157 188 -475 283 -595 26 -34 89 -119 138 -189 119 -170 277 -331 425 -432
25 -17 64 -49 87 -71 23 -22 65 -54 95 -71 29 -17 78 -49 108 -70 57 -42 200
-118 260 -140 19 -7 78 -33 130 -56 189 -86 540 -210 625 -220 58 -8 122 -26
225 -64 30 -11 98 -30 150 -41 52 -12 142 -37 200 -56 l104 -34 1093 0 1093 0
0 869 c0 848 0 869 -20 893 -23 30 -36 35 -495 184 -198 64 -398 129 -445 144
-363 119 -551 180 -785 255 -148 48 -288 93 -310 100 -22 8 -175 58 -340 111
-165 53 -347 114 -405 135 -281 100 -404 144 -630 224 -367 131 -423 154 -448
188 -7 9 -30 26 -50 36 -49 25 -258 174 -302 215 -19 18 -52 45 -74 61 -21 15
-99 84 -172 152 -196 182 -376 419 -494 651 -56 111 -73 136 -83 126z"/>
</g>
</svg>
