<svg xmlns="http://www.w3.org/2000/svg" width="24" height="24" viewBox="0 0 24 24" id="search">
  <path d="m 8.4996448,-3.5893515e-4 c -4.68258,0 -8.49999995074,3.81742433515 -8.49999995074,8.50000003515 0,4.6825759 3.81741995074,8.4999999 8.49999995074,8.4999999 2.0371602,0 3.9103802,-0.723832 5.3769502,-1.925781 1.86497,2.506478 5.33838,7.018073 6.58789,8.267578 0.80857,0.808575 2.14844,0.912107 2.96875,0.0918 0.82031,-0.820306 0.71677,-2.160174 -0.0918,-2.96875 -1.24945,-1.249439 -5.79002,-4.716154 -8.26758,-6.587891 1.20196,-1.466574 1.92579,-3.339795 1.92579,-5.3769559 0,-4.6825757 -3.81742,-8.50000003515 -8.5000002,-8.50000003515 z m 0,2.00000003515 c 3.6017002,0 6.5000002,2.8983045 6.5000002,6.5 0,3.6016959 -2.8983,6.4999999 -6.5000002,6.4999999 -3.6017,0 -6.5,-2.898304 -6.5,-6.4999999 0,-3.6016955 2.8983,-6.5 6.5,-6.5 z" color="#000" font-family="sans-serif" font-weight="400" overflow="visible" style="line-height:normal;text-indent:0;text-align:start;text-decoration-line:none;text-decoration-style:solid;text-decoration-color:#000;text-transform:none;block-progression:tb;isolation:auto;mix-blend-mode:normal"></path>
</svg>
